<svg width="1440" height="290" viewBox="0 0 1440 290" fill="none" xmlns="http://www.w3.org/2000/svg">
<mask id="mask0_498_6681" style="mask-type:alpha" maskUnits="userSpaceOnUse" x="0" y="0" width="1440" height="290">
<rect width="1440" height="290" fill="#F8F8F8"/>
</mask>
<g mask="url(#mask0_498_6681)">
<rect width="758" height="421.111" fill="#B481DC"/>
<circle cx="42.1111" cy="42.1111" r="42.1111" fill="#CDABE7"/>
<circle cx="715.889" cy="126.333" r="42.1111" fill="#CDABE7"/>
<circle cx="463.222" cy="42.1111" r="42.1111" fill="#9A55CF"/>
<circle cx="547.444" cy="42.1111" r="42.1111" fill="#CDABE7"/>
<circle cx="294.778" cy="294.778" r="42.1111" fill="#CDABE7"/>
<circle cx="547.444" cy="294.778" r="42.1111" fill="#CDABE7"/>
<rect x="84.2222" width="84.2222" height="84.2222" fill="#9A55CF"/>
<rect x="505.333" y="84.2222" width="84.2222" height="84.2222" fill="#9A55CF"/>
<rect x="84.2222" y="168.444" width="84.2222" height="84.2222" fill="#9A55CF"/>
<rect x="252.667" y="168.444" width="84.2222" height="84.2222" fill="#9A55CF"/>
<rect y="252.667" width="84.2222" height="84.2222" fill="#9A55CF"/>
<rect x="84.2222" y="252.667" width="84.2222" height="84.2222" fill="#CDABE7"/>
<rect x="336.889" width="84.2222" height="84.2222" fill="#CDABE7"/>
<rect x="421.111" y="252.667" width="84.2222" height="84.2222" fill="#E6D4F3"/>
<rect x="673.778" width="84.2222" height="84.2222" fill="#9A55CF"/>
<rect x="589.556" y="168.444" width="84.2222" height="84.2222" fill="#822CC4"/>
<rect x="168.444" y="252.667" width="84.2222" height="84.2222" fill="#822CC4"/>
<path fill-rule="evenodd" clip-rule="evenodd" d="M84.2539 84.3074C130.702 84.3252 168.351 121.98 168.359 168.43L168.359 84.3074L84.2539 84.3074Z" fill="#B481DC"/>
<path fill-rule="evenodd" clip-rule="evenodd" d="M84.2541 84.3074L84.2222 84.3074L84.2222 168.444L168.359 168.444L168.359 168.43C168.352 121.98 130.702 84.3253 84.2541 84.3074Z" fill="#822CC4"/>
<path fill-rule="evenodd" clip-rule="evenodd" d="M336.921 168.53C383.369 168.548 421.018 206.203 421.026 252.653L421.026 168.53L336.921 168.53Z" fill="#B481DC"/>
<path fill-rule="evenodd" clip-rule="evenodd" d="M336.921 168.53L336.889 168.53L336.889 252.667L421.026 252.667L421.026 252.653C421.018 206.203 383.369 168.548 336.921 168.53Z" fill="#9A55CF"/>
<path fill-rule="evenodd" clip-rule="evenodd" d="M589.587 0.0852127C636.036 0.103018 673.685 37.7581 673.692 84.208L673.692 0.085209L589.587 0.0852127Z" fill="#B481DC"/>
<path fill-rule="evenodd" clip-rule="evenodd" d="M589.588 0.0852814L589.556 0.0852814L589.556 84.2222L673.693 84.2222L673.693 84.2081C673.685 37.7582 636.036 0.103086 589.588 0.0852814Z" fill="#822CC4"/>
<path fill-rule="evenodd" clip-rule="evenodd" d="M505.302 168.359C458.853 168.341 421.204 130.686 421.197 84.2363L421.197 168.359L505.302 168.359Z" fill="#B481DC"/>
<path fill-rule="evenodd" clip-rule="evenodd" d="M505.301 168.359L505.333 168.359L505.333 84.2222L421.196 84.2222L421.196 84.2363C421.204 130.686 458.853 168.341 505.301 168.359Z" fill="#9A55CF"/>
<path fill-rule="evenodd" clip-rule="evenodd" d="M210.556 168.444C233.784 168.444 252.617 187.241 252.617 210.432C252.617 222.027 247.912 232.521 240.3 240.119C232.691 247.713 222.184 252.415 210.573 252.419H210.556L210.556 230.021C215.974 230.021 220.881 227.831 224.435 224.285C224.448 224.272 224.46 224.259 224.473 224.246C224.46 224.259 224.448 224.271 224.435 224.284C220.881 227.831 215.974 230.021 210.556 230.021L210.556 190.835C210.556 190.835 210.556 190.835 210.556 190.835L210.556 168.444Z" fill="#CDABE7"/>
<path fill-rule="evenodd" clip-rule="evenodd" d="M210.506 252.419C187.278 252.419 168.445 233.622 168.445 210.431C168.445 198.836 173.15 188.343 180.762 180.745C188.371 173.15 198.878 168.449 210.489 168.444L210.506 168.444L210.506 190.842C205.088 190.842 200.181 193.032 196.627 196.579C193.295 199.904 191.158 204.416 190.904 209.424C191.158 204.417 193.295 199.905 196.627 196.58C200.181 193.033 205.088 190.843 210.506 190.843L210.506 230.028L210.506 252.419Z" fill="#9A55CF"/>
<path fill-rule="evenodd" clip-rule="evenodd" d="M19.6657 210.436C19.6657 199.592 10.8578 190.801 -1.71618e-06 190.801L0 230.063C5.42888 230.063 10.3455 227.869 13.906 224.315C17.4673 220.761 19.6657 215.854 19.6657 210.436Z" fill="#E6D4F3"/>
<path fill-rule="evenodd" clip-rule="evenodd" d="M-3.67774e-06 168.367C23.2731 168.367 42.1425 187.201 42.1425 210.436C42.1426 222.054 37.4289 232.568 29.8016 240.18C22.1779 247.789 11.6503 252.5 0.0178435 252.504L84.2992 252.504L84.2992 168.367L-3.67777e-06 168.367L-3.67774e-06 168.367Z" fill="#822CC4"/>
<path fill-rule="evenodd" clip-rule="evenodd" d="M42.1426 210.436C42.1426 187.201 23.2731 168.367 -3.67774e-06 168.367L-2.69711e-06 190.802C10.8578 190.802 19.6657 199.593 19.6657 210.436C19.6657 215.855 17.4673 220.762 13.906 224.316C10.3455 227.869 5.42888 230.063 -9.80926e-07 230.063L0 252.504L0.0178435 252.504C11.6503 252.5 22.1779 247.789 29.8016 240.18C37.4289 232.568 42.1426 222.054 42.1426 210.436Z" fill="#E6D4F3"/>
<path fill-rule="evenodd" clip-rule="evenodd" d="M463.183 233.039C452.361 233.039 443.587 241.83 443.587 252.667L482.773 252.667C482.773 247.248 480.583 242.341 477.036 238.788C473.489 235.233 468.591 233.039 463.183 233.039Z" fill="#E6D4F3"/>
<path fill-rule="evenodd" clip-rule="evenodd" d="M421.196 252.667C421.196 229.439 439.993 210.605 463.184 210.605C474.779 210.605 485.273 215.31 492.871 222.923C500.465 230.532 505.167 241.039 505.171 252.649L505.171 168.53L421.196 168.53L421.196 252.667L421.196 252.667Z" fill="#822CC4"/>
<path fill-rule="evenodd" clip-rule="evenodd" d="M463.184 210.605C439.993 210.605 421.196 229.438 421.196 252.667L443.587 252.667C443.587 241.83 452.361 233.039 463.184 233.039C468.592 233.039 473.49 235.233 477.037 238.788C480.583 242.341 482.773 247.248 482.773 252.667L505.171 252.667L505.171 252.649C505.167 241.039 500.465 230.532 492.871 222.923C485.273 215.31 474.779 210.605 463.184 210.605Z" fill="#E6D4F3"/>
<path fill-rule="evenodd" clip-rule="evenodd" d="M336.72 0.300789L336.72 168.576L168.444 168.576C261.38 168.576 336.72 93.2361 336.72 0.300789Z" fill="#B481DC"/>
<path fill-rule="evenodd" clip-rule="evenodd" d="M168.444 168.576L168.444 84.4592C214.923 84.4592 252.603 46.7796 252.603 0.300785L336.72 0.300789C336.72 93.2361 261.38 168.576 168.444 168.576Z" fill="#9A55CF"/>
<path fill-rule="evenodd" clip-rule="evenodd" d="M168.444 84.4592L168.444 0.300781L252.603 0.300785C252.603 46.7796 214.923 84.4592 168.444 84.4592Z" fill="#822CC4"/>
<path fill-rule="evenodd" clip-rule="evenodd" d="M758 420.942L589.725 420.942L589.725 252.667C589.725 345.602 665.065 420.942 758 420.942Z" fill="#B481DC"/>
<path fill-rule="evenodd" clip-rule="evenodd" d="M589.725 252.667L673.842 252.667C673.842 299.146 711.521 336.825 758 336.825L758 420.942C665.065 420.942 589.725 345.602 589.725 252.667Z" fill="#9A55CF"/>
<path fill-rule="evenodd" clip-rule="evenodd" d="M673.842 252.667L758 252.667L758 336.825C711.521 336.825 673.842 299.146 673.842 252.667Z" fill="#822CC4"/>
<rect x="758" width="758" height="421.111" fill="#B481DC"/>
<circle cx="800.111" cy="42.1111" r="42.1111" fill="#CDABE7"/>
<circle cx="1473.89" cy="126.333" r="42.1111" fill="#CDABE7"/>
<circle cx="1221.22" cy="42.1111" r="42.1111" fill="#822CC4"/>
<circle cx="1305.44" cy="42.1111" r="42.1111" fill="#CDABE7"/>
<circle cx="1052.78" cy="294.778" r="42.1111" fill="#CDABE7"/>
<circle cx="1305.44" cy="294.778" r="42.1111" fill="#CDABE7"/>
<rect x="842.222" width="84.2222" height="84.2222" fill="#9A55CF"/>
<rect x="1263.33" y="84.2222" width="84.2222" height="84.2222" fill="#9A55CF"/>
<rect x="842.222" y="168.444" width="84.2222" height="84.2222" fill="#9A55CF"/>
<rect x="1010.67" y="168.444" width="84.2222" height="84.2222" fill="#9A55CF"/>
<rect x="758" y="252.667" width="84.2222" height="84.2222" fill="#9A55CF"/>
<rect x="842.222" y="252.667" width="84.2222" height="84.2222" fill="#CDABE7"/>
<rect x="1094.89" width="84.2222" height="84.2222" fill="#CDABE7"/>
<rect x="1179.11" y="252.667" width="84.2222" height="84.2222" fill="#E6D4F3"/>
<rect x="1431.78" width="84.2222" height="84.2222" fill="#9A55CF"/>
<rect x="1347.56" y="168.444" width="84.2222" height="84.2222" fill="#822CC4"/>
<rect x="926.444" y="252.667" width="84.2222" height="84.2222" fill="#822CC4"/>
<path fill-rule="evenodd" clip-rule="evenodd" d="M842.254 84.3074C888.703 84.3252 926.352 121.98 926.359 168.43L926.359 84.3074L842.254 84.3074Z" fill="#B481DC"/>
<path fill-rule="evenodd" clip-rule="evenodd" d="M842.254 84.3074L842.222 84.3074L842.222 168.444L926.359 168.444L926.359 168.43C926.352 121.98 888.703 84.3253 842.254 84.3074Z" fill="#822CC4"/>
<path fill-rule="evenodd" clip-rule="evenodd" d="M1094.92 168.53C1141.37 168.548 1179.02 206.203 1179.03 252.653L1179.03 168.53L1094.92 168.53Z" fill="#B481DC"/>
<path fill-rule="evenodd" clip-rule="evenodd" d="M1094.92 168.53L1094.89 168.53L1094.89 252.667L1179.03 252.667L1179.03 252.653C1179.02 206.203 1141.37 168.548 1094.92 168.53Z" fill="#9A55CF"/>
<path fill-rule="evenodd" clip-rule="evenodd" d="M1347.59 0.0852127C1394.04 0.103018 1431.68 37.7581 1431.69 84.208L1431.69 0.085209L1347.59 0.0852127Z" fill="#B481DC"/>
<path fill-rule="evenodd" clip-rule="evenodd" d="M1347.59 0.0852814L1347.56 0.0852814L1347.56 84.2222L1431.69 84.2222L1431.69 84.2081C1431.69 37.7582 1394.04 0.103086 1347.59 0.0852814Z" fill="#822CC4"/>
<path fill-rule="evenodd" clip-rule="evenodd" d="M1263.3 168.359C1216.85 168.341 1179.2 130.686 1179.2 84.2363L1179.2 168.359L1263.3 168.359Z" fill="#B481DC"/>
<path fill-rule="evenodd" clip-rule="evenodd" d="M1263.3 168.359L1263.33 168.359L1263.33 84.2222L1179.2 84.2222L1179.2 84.2363C1179.2 130.686 1216.85 168.341 1263.3 168.359Z" fill="#CDABE7"/>
<path fill-rule="evenodd" clip-rule="evenodd" d="M968.556 168.444C991.784 168.444 1010.62 187.241 1010.62 210.432C1010.62 222.027 1005.91 232.521 998.3 240.119C990.691 247.713 980.184 252.415 968.573 252.419H968.556L968.556 230.021C973.974 230.021 978.881 227.831 982.435 224.285C982.448 224.272 982.46 224.259 982.473 224.246C982.46 224.259 982.448 224.271 982.435 224.284C978.881 227.831 973.974 230.021 968.556 230.021L968.556 190.835C968.556 190.835 968.556 190.835 968.556 190.835L968.556 168.444Z" fill="#CDABE7"/>
<path fill-rule="evenodd" clip-rule="evenodd" d="M968.506 252.419C945.278 252.419 926.445 233.622 926.445 210.431C926.445 198.836 931.15 188.343 938.762 180.745C946.371 173.15 956.878 168.449 968.489 168.444L968.506 168.444L968.506 190.842C963.088 190.842 958.181 193.032 954.627 196.579C951.295 199.904 949.158 204.416 948.904 209.424C949.158 204.417 951.295 199.905 954.627 196.58C958.181 193.033 963.088 190.843 968.506 190.843L968.506 230.028L968.506 252.419Z" fill="#9A55CF"/>
<path fill-rule="evenodd" clip-rule="evenodd" d="M777.666 210.436C777.666 199.592 768.858 190.801 758 190.801L758 230.063C763.429 230.063 768.346 227.869 771.906 224.315C775.467 220.761 777.666 215.854 777.666 210.436Z" fill="#E6D4F3"/>
<path fill-rule="evenodd" clip-rule="evenodd" d="M758 168.367C781.273 168.367 800.143 187.201 800.143 210.436C800.143 222.054 795.429 232.568 787.802 240.18C780.178 247.789 769.65 252.5 758.018 252.504L842.299 252.504L842.299 168.367L758 168.367L758 168.367Z" fill="#822CC4"/>
<path fill-rule="evenodd" clip-rule="evenodd" d="M800.143 210.436C800.143 187.201 781.273 168.367 758 168.367L758 190.802C768.858 190.802 777.666 199.593 777.666 210.436C777.666 215.855 775.467 220.762 771.906 224.316C768.345 227.869 763.429 230.063 758 230.063L758 252.504L758.018 252.504C769.65 252.5 780.178 247.789 787.802 240.18C795.429 232.568 800.143 222.054 800.143 210.436Z" fill="#E6D4F3"/>
<path fill-rule="evenodd" clip-rule="evenodd" d="M1221.18 233.039C1210.36 233.039 1201.59 241.83 1201.59 252.667L1240.77 252.667C1240.77 247.248 1238.58 242.341 1235.04 238.788C1231.49 235.233 1226.59 233.039 1221.18 233.039Z" fill="#E6D4F3"/>
<path fill-rule="evenodd" clip-rule="evenodd" d="M1179.2 252.667C1179.2 229.439 1197.99 210.605 1221.18 210.605C1232.78 210.605 1243.27 215.31 1250.87 222.923C1258.47 230.532 1263.17 241.039 1263.17 252.649L1263.17 168.53L1179.2 168.53L1179.2 252.667L1179.2 252.667Z" fill="#822CC4"/>
<path fill-rule="evenodd" clip-rule="evenodd" d="M1221.18 210.605C1197.99 210.605 1179.2 229.438 1179.2 252.667L1201.59 252.667C1201.59 241.83 1210.36 233.039 1221.18 233.039C1226.59 233.039 1231.49 235.233 1235.04 238.788C1238.58 242.341 1240.77 247.248 1240.77 252.667L1263.17 252.667L1263.17 252.649C1263.17 241.039 1258.47 230.532 1250.87 222.923C1243.27 215.31 1232.78 210.605 1221.18 210.605Z" fill="#E6D4F3"/>
<path fill-rule="evenodd" clip-rule="evenodd" d="M1094.72 0.300789L1094.72 168.576L926.444 168.576C1019.38 168.576 1094.72 93.2361 1094.72 0.300789Z" fill="#B481DC"/>
<path fill-rule="evenodd" clip-rule="evenodd" d="M926.444 168.576L926.444 84.4592C972.923 84.4592 1010.6 46.7796 1010.6 0.300785L1094.72 0.300789C1094.72 93.2361 1019.38 168.576 926.444 168.576Z" fill="#9A55CF"/>
<path fill-rule="evenodd" clip-rule="evenodd" d="M926.444 84.4592L926.444 0.300781L1010.6 0.300785C1010.6 46.7796 972.923 84.4592 926.444 84.4592Z" fill="#822CC4"/>
<path fill-rule="evenodd" clip-rule="evenodd" d="M1516 420.942L1347.72 420.942L1347.72 252.667C1347.72 345.602 1423.06 420.942 1516 420.942Z" fill="#B481DC"/>
<path fill-rule="evenodd" clip-rule="evenodd" d="M1347.72 252.667L1431.84 252.667C1431.84 299.146 1469.52 336.825 1516 336.825L1516 420.942C1423.06 420.942 1347.72 345.602 1347.72 252.667Z" fill="#9A55CF"/>
<path fill-rule="evenodd" clip-rule="evenodd" d="M1431.84 252.667L1516 252.667L1516 336.825C1469.52 336.825 1431.84 299.146 1431.84 252.667Z" fill="#822CC4"/>
</g>
</svg>
