<svg width="289" height="53" viewBox="0 0 289 53" fill="none" xmlns="http://www.w3.org/2000/svg">
<path d="M19.8036 17.7378V38.0355H15.2803V35.4508C14.5201 36.363 13.5698 37.0726 12.4295 37.5794C11.2892 38.0609 10.0602 38.3016 8.74245 38.3016C6.03103 38.3016 3.88976 37.5541 2.31865 36.059C0.772884 34.5385 0 32.2959 0 29.3311V17.7378H4.75133V28.6849C4.75133 30.5094 5.15678 31.8778 5.96767 32.79C6.80391 33.677 7.98224 34.1204 9.50267 34.1204C11.2005 34.1204 12.5435 33.6009 13.5318 32.562C14.5454 31.4977 15.0522 29.9773 15.0522 28.0007V17.7378H19.8036Z" fill="#495057"/>
<path d="M30.5478 20.7027C31.9162 18.5741 34.3235 17.5098 37.7698 17.5098V22.033C37.3644 21.957 36.9969 21.919 36.6675 21.919C34.8177 21.919 33.3733 22.4638 32.3343 23.5535C31.2953 24.6178 30.7759 26.1635 30.7759 28.1908V38.0355H26.0245V17.7378H30.5478V20.7027Z" fill="#495057"/>
<path d="M48.1464 38.3016C46.4993 38.3016 44.8902 38.0862 43.3191 37.6554C41.748 37.2246 40.4936 36.6798 39.556 36.021L41.3805 32.4099C42.2928 33.0181 43.3824 33.5123 44.6495 33.8924C45.9418 34.2471 47.2089 34.4245 48.4505 34.4245C51.2887 34.4245 52.7077 33.677 52.7077 32.1819C52.7077 31.4723 52.3403 30.9782 51.6054 30.6995C50.8959 30.4207 49.7429 30.1546 48.1464 29.9012C46.474 29.6478 45.1056 29.3564 44.0413 29.027C43.0023 28.6976 42.0901 28.1274 41.3045 27.3165C40.5443 26.4803 40.1642 25.3273 40.1642 23.8575C40.1642 21.9317 40.9624 20.3986 42.5589 19.2582C44.1807 18.0926 46.3599 17.5098 49.0967 17.5098C50.4904 17.5098 51.8842 17.6745 53.2779 18.0039C54.6716 18.308 55.8119 18.7261 56.6988 19.2582L54.8743 22.8693C53.1512 21.8556 51.2126 21.3488 49.0587 21.3488C47.665 21.3488 46.6007 21.5642 45.8658 21.995C45.1563 22.4005 44.8015 22.9453 44.8015 23.6295C44.8015 24.3897 45.1816 24.9345 45.9418 25.2639C46.7274 25.568 47.931 25.8594 49.5528 26.1382C51.1746 26.3916 52.505 26.683 53.544 27.0124C54.5829 27.3419 55.4698 27.8993 56.2047 28.6849C56.9649 29.4704 57.345 30.5854 57.345 32.0298C57.345 33.9304 56.5215 35.4508 54.8743 36.5911C53.2272 37.7314 50.9846 38.3016 48.1464 38.3016Z" fill="#495057"/>
<path d="M67.7086 38.3016C66.0614 38.3016 64.4523 38.0862 62.8812 37.6554C61.3101 37.2246 60.0558 36.6798 59.1182 36.021L60.9427 32.4099C61.8549 33.0181 62.9446 33.5123 64.2116 33.8924C65.504 34.2471 66.771 34.4245 68.0127 34.4245C70.8508 34.4245 72.2699 33.677 72.2699 32.1819C72.2699 31.4723 71.9024 30.9782 71.1675 30.6995C70.458 30.4207 69.305 30.1546 67.7086 29.9012C66.0361 29.6478 64.6677 29.3564 63.6034 29.027C62.5645 28.6976 61.6522 28.1274 60.8667 27.3165C60.1064 26.4803 59.7263 25.3273 59.7263 23.8575C59.7263 21.9317 60.5246 20.3986 62.121 19.2582C63.7428 18.0926 65.9221 17.5098 68.6588 17.5098C70.0526 17.5098 71.4463 17.6745 72.84 18.0039C74.2337 18.308 75.3741 18.7261 76.261 19.2582L74.4365 22.8693C72.7133 21.8556 70.7748 21.3488 68.6208 21.3488C67.2271 21.3488 66.1628 21.5642 65.4279 21.995C64.7184 22.4005 64.3636 22.9453 64.3636 23.6295C64.3636 24.3897 64.7437 24.9345 65.504 25.2639C66.2895 25.568 67.4932 25.8594 69.115 26.1382C70.7368 26.3916 72.0671 26.683 73.1061 27.0124C74.1451 27.3419 75.032 27.8993 75.7668 28.6849C76.527 29.4704 76.9072 30.5854 76.9072 32.0298C76.9072 33.9304 76.0836 35.4508 74.4365 36.5911C72.7893 37.7314 70.5467 38.3016 67.7086 38.3016Z" fill="#495057"/>
<path d="M100.841 17.7378V38.0355H96.3172V35.4128C95.5317 36.3757 94.5561 37.0979 93.3904 37.5794C92.2501 38.0609 90.9831 38.3016 89.5893 38.3016C87.6128 38.3016 85.839 37.8708 84.2679 37.0092C82.7221 36.1477 81.5058 34.9313 80.6188 33.3602C79.7573 31.7891 79.3265 29.9646 79.3265 27.8867C79.3265 25.8088 79.7573 23.9969 80.6188 22.4511C81.5058 20.88 82.7221 19.6637 84.2679 18.8021C85.839 17.9405 87.6128 17.5098 89.5893 17.5098C90.9071 17.5098 92.1107 17.7378 93.2004 18.194C94.3153 18.6501 95.2783 19.3216 96.0892 20.2085V17.7378H100.841ZM90.1215 34.2345C91.87 34.2345 93.3144 33.6516 94.4547 32.486C95.595 31.3203 96.1652 29.7872 96.1652 27.8867C96.1652 25.9861 95.595 24.453 94.4547 23.2874C93.3144 22.1217 91.87 21.5389 90.1215 21.5389C88.373 21.5389 86.9286 22.1217 85.7883 23.2874C84.6733 24.453 84.1158 25.9861 84.1158 27.8867C84.1158 29.7872 84.6733 31.3203 85.7883 32.486C86.9286 33.6516 88.373 34.2345 90.1215 34.2345Z" fill="#495057"/>
<path d="M114.697 13.4046C112.695 13.4046 111.694 14.4942 111.694 16.6735V17.8899H117.282V21.6909H111.808V38.0355H107.057V16.5975C107.057 14.4436 107.691 12.7331 108.958 11.4661C110.225 10.199 112.024 9.56553 114.355 9.56553C116.154 9.56553 117.573 9.93297 118.612 10.6678L117.282 14.2408C116.522 13.6834 115.66 13.4046 114.697 13.4046Z" fill="#495057"/>
<path d="M205.369 17.7378V38.0355H200.846V35.4128C200.06 36.3757 199.085 37.0979 197.919 37.5794C196.779 38.0609 195.512 38.3016 194.118 38.3016C192.141 38.3016 190.367 37.8708 188.796 37.0092C187.251 36.1477 186.034 34.9313 185.147 33.3602C184.286 31.7891 183.855 29.9646 183.855 27.8867C183.855 25.8088 184.286 23.9969 185.147 22.4512C186.034 20.8801 187.251 19.6637 188.796 18.8021C190.367 17.9406 192.141 17.5098 194.118 17.5098C195.436 17.5098 196.639 17.7378 197.729 18.194C198.844 18.6501 199.807 19.3216 200.618 20.2085V17.7378H205.369ZM194.65 34.2345C196.399 34.2345 197.843 33.6516 198.983 32.486C200.124 31.3203 200.694 29.7872 200.694 27.8867C200.694 25.9862 200.124 24.4531 198.983 23.2874C197.843 22.1217 196.399 21.5389 194.65 21.5389C192.902 21.5389 191.457 22.1217 190.317 23.2874C189.202 24.4531 188.644 25.9862 188.644 27.8867C188.644 29.7872 189.202 31.3203 190.317 32.486C191.457 33.6516 192.902 34.2345 194.65 34.2345Z" fill="#495057"/>
<path d="M217.857 38.3016C216.21 38.3016 214.601 38.0862 213.03 37.6554C211.459 37.2246 210.204 36.6798 209.267 36.021L211.091 32.41C212.004 33.0181 213.093 33.5123 214.36 33.8924C215.653 34.2471 216.92 34.4245 218.161 34.4245C221 34.4245 222.419 33.677 222.419 32.1819C222.419 31.4724 222.051 30.9782 221.316 30.6995C220.607 30.4207 219.454 30.1547 217.857 29.9013C216.185 29.6479 214.816 29.3564 213.752 29.027C212.713 28.6976 211.801 28.1274 211.015 27.3165C210.255 26.4803 209.875 25.3273 209.875 23.8576C209.875 21.9317 210.673 20.3986 212.27 19.2583C213.892 18.0926 216.071 17.5098 218.808 17.5098C220.201 17.5098 221.595 17.6745 222.989 18.0039C224.382 18.308 225.523 18.7261 226.41 19.2583L224.585 22.8693C222.862 21.8557 220.923 21.3489 218.77 21.3489C217.376 21.3489 216.312 21.5642 215.577 21.995C214.867 22.4005 214.512 22.9453 214.512 23.6295C214.512 24.3897 214.892 24.9345 215.653 25.264C216.438 25.568 217.642 25.8595 219.264 26.1382C220.885 26.3916 222.216 26.683 223.255 27.0124C224.294 27.3419 225.181 27.8994 225.916 28.6849C226.676 29.4705 227.056 30.5854 227.056 32.0299C227.056 33.9304 226.232 35.4508 224.585 36.5911C222.938 37.7315 220.695 38.3016 217.857 38.3016Z" fill="#495057"/>
<path d="M237.419 38.3016C235.772 38.3016 234.163 38.0862 232.592 37.6554C231.021 37.2246 229.767 36.6798 228.829 36.021L230.654 32.41C231.566 33.0181 232.655 33.5123 233.922 33.8924C235.215 34.2471 236.482 34.4245 237.724 34.4245C240.562 34.4245 241.981 33.677 241.981 32.1819C241.981 31.4724 241.613 30.9782 240.878 30.6995C240.169 30.4207 239.016 30.1547 237.419 29.9013C235.747 29.6479 234.379 29.3564 233.314 29.027C232.275 28.6976 231.363 28.1274 230.578 27.3165C229.817 26.4803 229.437 25.3273 229.437 23.8576C229.437 21.9317 230.235 20.3986 231.832 19.2583C233.454 18.0926 235.633 17.5098 238.37 17.5098C239.763 17.5098 241.157 17.6745 242.551 18.0039C243.945 18.308 245.085 18.7261 245.972 19.2583L244.147 22.8693C242.424 21.8557 240.486 21.3489 238.332 21.3489C236.938 21.3489 235.874 21.5642 235.139 21.995C234.429 22.4005 234.074 22.9453 234.074 23.6295C234.074 24.3897 234.455 24.9345 235.215 25.264C236 25.568 237.204 25.8595 238.826 26.1382C240.448 26.3916 241.778 26.683 242.817 27.0124C243.856 27.3419 244.743 27.8994 245.478 28.6849C246.238 29.4705 246.618 30.5854 246.618 32.0299C246.618 33.9304 245.794 35.4508 244.147 36.5911C242.5 37.7315 240.258 38.3016 237.419 38.3016Z" fill="#495057"/>
<path d="M270.361 17.7378V38.0355H265.838V35.4508C265.078 36.3631 264.128 37.0726 262.987 37.5794C261.847 38.0609 260.618 38.3016 259.3 38.3016C256.589 38.3016 254.448 37.5541 252.876 36.059C251.331 34.5386 250.558 32.2959 250.558 29.3311V17.7378H255.309V28.6849C255.309 30.5094 255.715 31.8778 256.525 32.7901C257.362 33.677 258.54 34.1204 260.06 34.1204C261.758 34.1204 263.101 33.601 264.09 32.562C265.103 31.4977 265.61 29.9773 265.61 28.0007V17.7378H270.361Z" fill="#495057"/>
<path d="M281.106 20.7027C282.474 18.5741 284.881 17.5098 288.328 17.5098V22.033C287.922 21.957 287.555 21.919 287.225 21.919C285.375 21.919 283.931 22.4638 282.892 23.5535C281.853 24.6178 281.334 26.1635 281.334 28.1908V38.0355H276.582V17.7378H281.106V20.7027Z" fill="#495057"/>
<path fill-rule="evenodd" clip-rule="evenodd" d="M175.228 14.1926C175.233 13.7259 175.103 13.2677 174.855 12.8726C174.62 12.49 174.287 12.177 173.891 11.9658L152.376 0.246801H152.319C152.012 0.0937082 151.675 0.00948988 151.332 2.3936e-05C150.991 -0.00153387 150.654 0.0729664 150.345 0.218106H150.299L128.004 11.9142C127.563 12.1412 127.2 12.4932 126.959 12.9262C126.718 13.3591 126.61 13.8536 126.649 14.3475V14.4107C126.649 14.5656 126.69 14.7894 126.718 15.0764H131.434L151.309 4.64288L170.432 15.0477H175.171C175.217 14.646 175.228 14.3475 175.228 14.1926Z" fill="#99D5C9"/>
<path fill-rule="evenodd" clip-rule="evenodd" d="M127.172 19.1855C127.225 19.6034 127.43 19.9872 127.747 20.2643C128.064 20.5414 128.472 20.6925 128.893 20.6891H129.811C130.055 20.6909 130.297 20.6405 130.521 20.5414C130.745 20.4423 130.944 20.2966 131.107 20.1142C131.27 19.9317 131.392 19.7167 131.465 19.4833C131.539 19.2499 131.561 19.0037 131.532 18.7608C131.366 17.3261 131.228 15.9946 131.148 15.2084L131.457 15.0477H126.741C126.804 15.9143 126.977 17.3605 127.172 19.1855Z" fill="#66C1AE"/>
<path fill-rule="evenodd" clip-rule="evenodd" d="M170.432 15.0477L170.845 15.2715C170.845 15.8856 170.845 17.2457 170.845 18.5829C170.84 19.0568 171.024 19.5132 171.355 19.8521C171.686 20.191 172.138 20.3847 172.612 20.3907H173.22C173.661 20.3913 174.085 20.2226 174.406 19.9193C174.726 19.616 174.918 19.2014 174.941 18.7608C175.027 17.2916 175.125 15.92 175.176 15.0477H170.432Z" fill="#66C1AE"/>
<path fill-rule="evenodd" clip-rule="evenodd" d="M172.491 33.5158L172.549 33.3551L172.589 33.1944C172.813 32.1212 173.22 30.7381 173.547 29.4469C173.607 29.2102 173.61 28.9629 173.558 28.7244C173.506 28.486 173.399 28.2629 173.247 28.0727C173.094 27.8824 172.899 27.7303 172.677 27.6282C172.455 27.5261 172.213 27.4767 171.969 27.4841H171.321C170.906 27.502 170.506 27.647 170.175 27.8995C169.845 28.1519 169.6 28.4997 169.473 28.8959C169.025 29.9444 168.642 31.0196 168.326 32.1155C167.457 34.3902 166.258 36.5249 164.769 38.4514H170.064C171.024 36.8847 171.837 35.2325 172.491 33.5158Z" fill="#66C1AE"/>
<path fill-rule="evenodd" clip-rule="evenodd" d="M134.825 32.0064C134.561 30.9792 134.062 29.9232 133.678 28.8328C133.553 28.4516 133.315 28.1179 132.995 27.8767C132.675 27.6355 132.288 27.4984 131.888 27.4841H131.021C130.772 27.4752 130.525 27.5259 130.299 27.632C130.073 27.7381 129.876 27.8965 129.724 28.0941C129.572 28.2917 129.47 28.5227 129.425 28.7679C129.38 29.0132 129.394 29.2656 129.466 29.5042C129.874 30.8357 130.373 32.2532 130.614 33.2862L130.66 33.4756L130.746 33.6535C131.521 35.3181 132.421 36.9219 133.437 38.4514H138.818C137.241 36.4657 135.901 34.3027 134.825 32.0064Z" fill="#66C1AE"/>
<path fill-rule="evenodd" clip-rule="evenodd" d="M164.769 38.4514C161.745 42.3711 157.385 45.6309 151.343 48.1503C146.438 45.9907 142.137 42.6604 138.818 38.4514H133.437C137.539 44.7247 143.441 49.6117 150.368 52.4717C150.976 52.7214 151.659 52.7214 152.267 52.4717C160.563 49.1546 166.404 44.4371 170.053 38.4456L164.769 38.4514Z" fill="#009778"/>
<path fill-rule="evenodd" clip-rule="evenodd" d="M166.106 26.8184C165.857 26.5124 165.498 26.3162 165.107 26.2722C164.715 26.2282 164.322 26.3398 164.011 26.5831L163.575 26.9274C163.297 27.1491 162.95 27.265 162.594 27.2546C162.238 27.2425 161.897 27.1065 161.63 26.87L156.042 21.9804C155.638 21.5988 155.149 21.3195 154.615 21.1657C154.081 21.012 153.518 20.9883 152.973 21.0966C151.99 21.3499 151.121 21.9259 150.506 22.7322C150.309 22.9586 150.061 23.1338 149.783 23.243C149.498 23.3521 149.183 23.3521 148.899 23.243C148.752 23.2004 148.612 23.1346 148.486 23.0479C148.502 22.9389 148.533 22.8326 148.578 22.7322C148.721 22.4344 148.902 22.1566 149.117 21.9058C149.23 21.7583 149.353 21.6183 149.484 21.4869L152.123 18.8699C152.353 18.8125 152.651 18.7494 152.978 18.6977C153.298 18.6394 153.623 18.6068 153.948 18.6001H154.298L154.407 18.6288C154.998 18.8538 155.609 19.0247 156.231 19.1396C156.931 19.2946 157.74 19.4438 158.526 19.5758L160.552 19.8972L161.194 19.989L161.372 20.0177H164.941C165.326 20.0177 165.696 19.8649 165.969 19.5928C166.242 19.3206 166.397 18.9513 166.398 18.5657C166.398 18.3743 166.36 18.1847 166.287 18.0079C166.214 17.831 166.107 17.6703 165.971 17.5349C165.836 17.3996 165.675 17.2922 165.499 17.219C165.322 17.1457 165.132 17.108 164.941 17.108H161.625L161.005 17.0162C160.489 16.9358 159.777 16.8268 159.031 16.7005C158.285 16.5743 157.528 16.4308 156.886 16.2988C156.472 16.2173 156.064 16.11 155.663 15.9774C155.129 15.7583 154.555 15.6509 153.977 15.6618C153.48 15.6672 152.985 15.7133 152.496 15.7995C152.049 15.8684 151.653 15.9545 151.349 16.0291H151.303L149.656 15.547C149.034 15.3656 148.37 15.3898 147.763 15.6159L142.026 17.7795H138.205C138.012 17.7772 137.82 17.8132 137.642 17.8854C137.463 17.9577 137.3 18.0647 137.163 18.2003C137.026 18.3359 136.917 18.4973 136.843 18.6753C136.768 18.8533 136.73 19.0443 136.73 19.2372C136.729 19.4288 136.766 19.6187 136.839 19.7959C136.912 19.9731 137.02 20.1341 137.155 20.2696C137.291 20.4051 137.452 20.5125 137.629 20.5855C137.806 20.6584 137.996 20.6956 138.187 20.6949H142.553L148.205 18.5772L147.356 19.4151C146.718 20.0577 146.196 20.8051 145.812 21.6246C145.456 22.3851 145.4 23.2525 145.657 24.0522C145.857 24.5408 146.169 24.9756 146.568 25.3215C146.966 25.6674 147.441 25.9148 147.952 26.0436C148.897 26.3759 149.929 26.3658 150.867 26.0149C151.622 25.6994 152.285 25.1979 152.795 24.5572C152.99 24.2765 153.266 24.0623 153.587 23.9432C153.63 23.9317 153.675 23.9317 153.718 23.9432C153.84 23.9841 153.95 24.0529 154.04 24.144L159.622 29.0394C160.089 29.4517 160.636 29.7625 161.229 29.9519C161.297 30.0765 161.342 30.2127 161.361 30.3536C161.292 30.4133 161.215 30.4617 161.131 30.4971C160.908 30.6004 160.676 30.6811 160.437 30.7381C160.02 30.8512 159.63 31.0463 159.289 31.312C158.945 31.5767 158.658 31.9086 158.446 32.2877C158.302 32.5759 158.119 32.8424 157.901 33.0796C157.131 33.0839 156.387 33.3604 155.801 33.8602L155.646 34.0094C155.566 34.0897 155.503 34.1471 155.428 34.2102C155.371 34.2648 155.31 34.3146 155.245 34.3594C155.064 34.4376 154.865 34.4634 154.671 34.4341C154.269 34.4437 153.871 34.5213 153.495 34.6636C153.19 34.812 152.862 34.9052 152.525 34.9391C152.511 34.9449 152.497 34.9479 152.482 34.9479C152.467 34.9479 152.453 34.9449 152.439 34.9391C152.375 34.9191 152.315 34.8881 152.261 34.8473C151.984 34.6723 151.69 34.5262 151.383 34.4111V34.3594C151.355 34.1475 151.308 33.9383 151.246 33.7339C151.127 33.1208 150.891 32.5362 150.551 32.0122C149.945 31.1303 149.053 30.484 148.027 30.1814L147.929 29.9978C147.905 29.9778 147.888 29.9491 147.884 29.9175C147.608 29.313 147.166 28.7995 146.61 28.4368C146.046 28.1166 145.392 27.9934 144.751 28.0867H144.596L144.516 27.9719L144.481 27.926C144.141 27.413 143.656 27.0133 143.087 26.7782C142.186 26.4605 141.212 26.4185 140.287 26.6577C140.124 26.6968 139.963 26.7447 139.805 26.8012L138.704 26.3191C138.347 26.1539 137.94 26.136 137.571 26.2692C137.201 26.4025 136.899 26.6761 136.73 27.0307C136.59 27.3807 136.59 27.7711 136.73 28.1211C136.798 28.3004 136.901 28.4643 137.033 28.6033C137.165 28.7422 137.323 28.8534 137.499 28.9303L138.25 29.2747C138.253 29.3033 138.253 29.3321 138.25 29.3608V29.4813C138.209 29.8049 138.188 30.1307 138.187 30.4569C138.232 31.2256 138.569 31.948 139.128 32.4771C139.452 32.8153 139.801 33.128 140.172 33.4125L140.241 33.4469C140.835 33.8719 141.529 34.1349 142.255 34.2102C142.777 34.3775 143.225 34.7202 143.523 35.1801C143.938 35.7366 144.509 36.1563 145.164 36.3853C145.469 36.4808 145.782 36.548 146.099 36.5862H146.162C146.308 36.6018 146.451 36.6287 146.593 36.6665C147.017 36.8329 147.468 36.9186 147.924 36.919H147.97C149.37 36.919 150.069 36.919 150.666 37.3036C151.237 37.6915 151.915 37.892 152.605 37.8775C153.32 37.8473 154.022 37.6838 154.677 37.3954C154.718 37.3896 154.761 37.3896 154.803 37.3954C155.505 37.3797 156.191 37.1819 156.794 36.8215C157.161 36.5865 157.5 36.3091 157.803 35.9951L157.844 35.9606H158.142C158.808 35.9204 159.44 35.653 159.932 35.2031C160.395 34.7473 160.783 34.2203 161.08 33.6421C161.093 33.6169 161.112 33.5951 161.134 33.5782C161.157 33.5614 161.184 33.5498 161.212 33.5445C162.153 33.3667 163.019 32.9087 163.696 32.2303C164.102 31.7716 164.343 31.1894 164.379 30.5774C164.387 30.3355 164.371 30.0933 164.333 29.8543C164.733 29.6974 165.11 29.4849 165.451 29.223L165.887 28.873C166.038 28.7547 166.165 28.6085 166.26 28.4425C166.355 28.2643 166.413 28.0693 166.433 27.8686C166.455 27.6762 166.439 27.4812 166.387 27.2947C166.325 27.1191 166.229 26.9573 166.106 26.8184ZM148.205 34.0036H147.895C147.802 33.997 147.711 33.9757 147.625 33.9405C147.291 33.8266 146.948 33.744 146.598 33.6937C146.433 33.6776 146.27 33.6468 146.111 33.6019H146.065C146.006 33.5597 145.954 33.5095 145.91 33.4527C145.142 32.3471 143.972 31.5852 142.651 31.3293C142.448 31.3186 142.251 31.2575 142.077 31.1513L142.02 31.1112C141.755 30.9182 141.504 30.7072 141.268 30.4799C141.22 30.4376 141.178 30.3894 141.142 30.3364C141.142 30.2159 141.171 30.0322 141.205 29.7281V29.5042C141.451 29.4497 141.705 29.4497 141.951 29.5042L142.049 29.5559H141.98L142.106 29.6994L142.135 29.7453C142.249 29.8983 142.37 30.0475 142.496 30.1929C142.724 30.4612 143.008 30.6767 143.328 30.8242C143.867 31.0681 144.464 31.1518 145.049 31.0653H145.164V31.0193C145.208 31.044 145.257 31.0596 145.307 31.0653H145.187C145.221 31.1284 145.279 31.2259 145.371 31.3981C145.535 31.7577 145.771 32.0799 146.065 32.3451C146.353 32.6033 146.691 32.8004 147.057 32.9247C147.485 33.0167 147.866 33.259 148.13 33.6076C148.205 33.7328 148.267 33.8655 148.314 34.0036H148.205Z" fill="#66C1AE"/>
</svg>
