<svg width="194" height="64" viewBox="0 0 194 64" fill="none" xmlns="http://www.w3.org/2000/svg">
<path d="M0 15.2614C0 20.1845 3.93846 24.123 8.86154 24.123C13.7846 24.123 17.7231 20.1845 17.7231 15.2614C17.7231 10.3384 13.7846 6.3999 8.86154 6.3999C3.93846 6.3999 0 10.3384 0 15.2614Z" fill="#3BC1CC"/>
<path d="M17.7232 24.123H35.4463C35.4463 33.9692 27.5693 41.8461 17.7232 41.8461V24.123Z" fill="#92B2DE"/>
<path d="M17.7232 24.123H35.4463V6.3999C25.7232 6.3999 17.7232 14.3999 17.7232 24.123Z" fill="#2B70B8"/>
<path d="M17.7231 24.123H0C0 33.9692 7.87692 41.8461 17.7231 41.8461V24.123Z" fill="#D1DDF1"/>
<path d="M76.4308 27.9384V6.39995H71.6308V28.0615C71.6308 33.1076 67.5692 37.1692 62.5231 37.1692C57.4769 37.1692 53.4154 33.1076 53.4154 28.0615V6.39995H48.6154V28.0615C48.6154 35.6923 54.7692 41.9692 62.4 41.9692C70.0308 41.9692 76.4308 35.6923 76.4308 27.9384ZM98.2154 21.6615H98.4615V17.2307C97.6 16.7384 96.3692 16.2461 94.7692 16.2461C91.0769 16.2461 88.4923 17.723 87.0154 20.6769H86.8923L86.7692 16.7384H82.9538V41.2307H87.3846V30.0307C87.3846 23.6307 89.6 20.4307 94.4 20.4307C95.7538 20.5538 97.1077 20.923 98.2154 21.6615ZM105.6 23.8769C105.6 21.6615 107.692 20.1846 110.769 20.1846C114.215 20.1846 116.8 21.0461 118.523 22.7692H118.769V18.0923C116.923 16.8615 113.969 16.2461 110.769 16.2461C105.108 16.2461 101.292 19.4461 101.292 24.123C101.292 28.5538 103.631 30.6461 110.154 31.0153C114.585 31.2615 115.938 32.2461 115.938 34.2153C115.938 36.4307 113.846 37.9076 110.523 37.9076C106.585 37.9076 103.508 36.8 101.538 34.4615H101.292V39.2615C103.385 40.9846 106.585 41.8461 110.646 41.8461C116.677 41.8461 120.369 38.8923 120.369 34.2153C120.369 29.4153 117.908 27.0769 111.138 26.7076C106.831 26.5846 105.6 25.723 105.6 23.8769ZM128 23.8769C128 21.6615 130.092 20.1846 133.169 20.1846C136.615 20.1846 139.2 21.0461 140.923 22.7692H141.169V18.0923C139.323 16.8615 136.369 16.2461 133.169 16.2461C127.508 16.2461 123.692 19.4461 123.692 24.123C123.692 28.5538 126.031 30.6461 132.554 31.0153C136.985 31.2615 138.338 32.2461 138.338 34.2153C138.338 36.4307 136.246 37.9076 132.923 37.9076C128.985 37.9076 125.908 36.8 123.938 34.4615H123.692V39.2615C125.785 40.9846 128.985 41.8461 133.046 41.8461C139.077 41.8461 142.769 38.8923 142.769 34.2153C142.769 29.4153 140.308 27.0769 133.538 26.7076C129.354 26.5846 128 25.723 128 23.8769ZM167.508 29.0461C167.508 34.2153 163.938 37.9076 159.015 37.9076C153.969 37.9076 150.523 34.3384 150.523 29.0461C150.523 23.7538 153.969 20.1846 159.015 20.1846C164.062 20.3076 167.508 23.8769 167.508 29.0461ZM168.123 41.3538H171.938V16.7384H168.123L168 20.6769H167.877C166.031 17.8461 162.708 16.2461 158.4 16.2461C151.262 16.2461 146.092 21.5384 146.092 29.0461C146.092 36.5538 151.262 41.8461 158.4 41.8461C162.708 41.8461 166.031 40.123 167.877 37.4153H168L168.123 41.3538ZM193.231 9.23072V5.04611C192.123 4.5538 190.4 4.18457 188.431 4.18457C183.138 4.18457 180.185 7.38457 180.185 12.923V16.8615H175.631V20.8H180.185V41.4769H184.738V20.6769H192.615V16.7384H184.738V12.8C184.738 9.59995 186.338 7.99995 189.046 7.99995C190.523 7.99995 192 8.36919 192.985 9.10765H193.231V9.23072Z" fill="#1E4488"/>
<path d="M7.01534 57.723L6.03072 55.3845H2.46149L1.59996 57.723H0.369186L3.69226 49.4768H4.92303L8.12303 57.723H7.01534ZM4.30765 50.7076L2.9538 54.3999H5.78457L4.30765 50.7076Z" fill="#2B70B8"/>
<path d="M12.677 56.9846C12.5539 57.2307 12.3077 57.4769 12.0616 57.6C11.6924 57.8461 11.3231 57.8461 10.9539 57.8461C10.3385 57.8461 9.8462 57.6 9.47697 57.2307C9.10774 56.8615 8.86159 56.2461 8.86159 55.6307V52.1846H9.96928V55.5076C9.96928 55.8769 10.0924 56.2461 10.2154 56.4923C10.4616 56.7384 10.7077 56.8615 11.2 56.8615C11.6924 56.8615 11.9385 56.7384 12.1847 56.4923C12.4308 56.2461 12.5539 55.8769 12.5539 55.5076V52.1846H13.6616V56.6153C13.6616 56.9846 13.6616 57.3538 13.6616 57.6H12.677C12.677 57.4769 12.677 57.3538 12.677 56.9846Z" fill="#2B70B8"/>
<path d="M17.2308 56.246L18.2154 55.8767C18.2154 56.1229 18.3385 56.369 18.5846 56.6152C18.8308 56.8613 19.0769 56.8613 19.4462 56.8613C19.6923 56.8613 19.9385 56.7383 20.1846 56.6152C20.3077 56.4921 20.4308 56.246 20.4308 56.1229C20.4308 55.7536 20.1846 55.5075 19.6923 55.3844L18.7077 55.1383C18.2154 55.0152 17.9692 54.8921 17.7231 54.5229C17.4769 54.2767 17.3539 53.9075 17.3539 53.5383C17.3539 53.046 17.6 52.6767 17.9692 52.3075C18.3385 51.9383 18.8308 51.8152 19.3231 51.8152C19.6923 51.8152 19.9385 51.8152 20.3077 51.9383C20.5539 52.0613 20.8 52.1844 20.9231 52.3075C21.0462 52.4306 21.1692 52.6767 21.2923 52.7998C21.4154 52.9229 21.4154 53.046 21.4154 53.2921L20.4308 53.6613C20.4308 53.5383 20.4308 53.5383 20.3077 53.4152C20.3077 53.2921 20.1846 53.169 20.1846 53.169C20.0615 53.046 19.9385 52.9229 19.8154 52.9229C19.6923 52.9229 19.5692 52.9229 19.3231 52.9229C19.0769 52.9229 18.8308 53.046 18.7077 53.169C18.4615 53.2921 18.4615 53.4152 18.4615 53.6613C18.4615 54.0306 18.7077 54.2767 19.0769 54.2767L19.9385 54.5229C20.4308 54.646 20.8 54.769 21.0462 55.1383C21.2923 55.3844 21.4154 55.7537 21.4154 56.246C21.4154 56.7383 21.2923 57.1075 20.9231 57.4767C20.5539 57.846 20.0615 57.969 19.4462 57.969C18.7077 57.969 18.2154 57.846 17.8462 57.4767C17.4769 56.9844 17.2308 56.6152 17.2308 56.246Z" fill="#2B70B8"/>
<path d="M26.8308 55.7536L27.8154 56.1229C27.6924 56.6152 27.3231 57.1075 26.9539 57.3536C26.3385 57.7229 25.8462 57.846 25.2308 57.846C24.4924 57.846 23.7539 57.5998 23.2616 56.9844C22.7693 56.4921 22.4001 55.7537 22.4001 54.769C22.4001 53.9075 22.6462 53.169 23.1385 52.6767C23.6308 52.0613 24.2462 51.8152 24.9847 51.8152C25.8462 51.8152 26.4616 52.0613 26.9539 52.5537C27.4462 53.046 27.6924 53.7844 27.6924 54.646C27.6924 54.769 27.6924 54.8921 27.6924 55.0152H23.5077C23.5077 55.5075 23.6308 55.8767 24.0001 56.246C24.3693 56.6152 24.7385 56.7383 25.2308 56.7383C26.0924 56.8613 26.5847 56.4921 26.8308 55.7536ZM23.6308 54.3998H26.7077C26.7077 54.0306 26.5847 53.6613 26.3385 53.4152C26.0924 53.169 25.7231 53.046 25.2308 53.046C24.7385 53.046 24.4924 53.169 24.1231 53.4152C23.7539 53.6613 23.6308 53.9075 23.6308 54.3998Z" fill="#2B70B8"/>
<path d="M32.2462 52.0615V53.1692C32.1231 53.1692 31.877 53.1692 31.7539 53.1692C30.7693 53.1692 30.277 53.7846 30.277 54.8923V57.7231H29.1693V52.1846H30.277V53.1692C30.6462 52.4308 31.1385 52.0615 32 52.0615C32 52.0615 32.1231 52.0615 32.2462 52.0615Z" fill="#2B70B8"/>
<path d="M38.2768 52.1846L36.0614 57.723H34.9538L32.7384 52.1846H33.9691L35.5691 56.4923L37.1691 52.1846H38.2768Z" fill="#2B70B8"/>
<path d="M39.3846 50.5846C39.2615 50.4615 39.1384 50.2153 39.1384 50.0923C39.1384 49.9692 39.2615 49.723 39.3846 49.4769C39.5076 49.3538 39.7538 49.2307 39.8769 49.2307C40.123 49.2307 40.2461 49.3538 40.4923 49.4769C40.6153 49.5999 40.7384 49.8461 40.7384 50.0923C40.7384 50.3384 40.6153 50.4615 40.4923 50.5846C40.3692 50.7076 40.123 50.8307 39.8769 50.8307C39.6307 50.8307 39.5076 50.7076 39.3846 50.5846ZM40.4923 57.723H39.3846V52.1846H40.4923V57.723Z" fill="#2B70B8"/>
<path d="M44.5538 52.9231C44.0615 52.9231 43.6922 53.0462 43.323 53.4154C42.9538 53.7846 42.8307 54.2769 42.8307 54.8923C42.8307 55.5077 42.9538 56 43.323 56.3692C43.6922 56.7385 44.0615 56.8616 44.5538 56.8616C45.0461 56.8616 45.4153 56.7385 45.6615 56.4923C45.9076 56.2462 46.0307 56 46.1538 55.7539L47.1384 56.1231C47.0153 56.6154 46.6461 56.9846 46.2768 57.3539C45.9076 57.7231 45.2922 57.8462 44.6768 57.8462C43.8153 57.8462 43.1999 57.6 42.7076 56.9846C42.2153 56.3692 41.9691 55.7539 41.9691 54.8923C41.9691 54.0308 42.2153 53.2923 42.7076 52.8C43.1999 52.3077 43.9384 51.9385 44.6768 51.9385C45.4153 51.9385 45.9076 52.0616 46.2768 52.4308C46.6461 52.8 47.0153 53.1692 47.1384 53.6616L46.1538 54.1539C46.0307 53.7846 45.9076 53.5385 45.6615 53.2923C45.4153 53.0462 45.0461 52.9231 44.5538 52.9231Z" fill="#2B70B8"/>
<path d="M52.3077 55.7536L53.2923 56.1229C53.1692 56.6152 52.8 57.1075 52.4308 57.3536C51.9385 57.7229 51.4462 57.846 50.8308 57.846C50.0923 57.846 49.3538 57.5998 48.8615 56.9844C48.3692 56.4921 48 55.7537 48 54.769C48 53.9075 48.2462 53.169 48.7385 52.6767C49.2308 52.0613 49.8462 51.8152 50.5846 51.8152C51.4462 51.8152 52.0615 52.0613 52.5538 52.5537C53.0462 53.046 53.2923 53.7844 53.2923 54.646C53.2923 54.769 53.2923 54.8921 53.2923 55.0152H49.1077C49.1077 55.5075 49.2308 55.8767 49.6 56.246C49.9692 56.6152 50.3385 56.7383 50.8308 56.7383C51.4462 56.8613 52.0615 56.4921 52.3077 55.7536ZM49.1077 54.3998H52.1846C52.1846 54.0306 52.0615 53.6613 51.8154 53.4152C51.5692 53.169 51.2 53.046 50.7077 53.046C50.2154 53.046 49.9692 53.169 49.6 53.4152C49.2308 53.6613 49.1077 53.9075 49.1077 54.3998Z" fill="#2B70B8"/>
<path d="M60.8 56.9846C60.6769 57.2307 60.4307 57.3538 60.1846 57.5999C59.8154 57.723 59.4461 57.8461 59.0769 57.8461C58.3384 57.8461 57.6 57.5999 57.1077 56.9846C56.6154 56.3692 56.3692 55.7538 56.3692 54.8922C56.3692 54.0307 56.6154 53.4153 57.1077 52.7999C57.6 52.1846 58.2154 51.9384 58.9538 51.9384C59.4461 51.9384 59.8154 52.0615 60.0615 52.1846C60.3077 52.3076 60.5538 52.5538 60.6769 52.7999V49.2307H61.7846V56.6153C61.7846 56.9846 61.7846 57.3538 61.7846 57.5999H60.6769C60.8 57.4769 60.8 57.2307 60.8 56.9846ZM57.4769 54.8922C57.4769 55.5076 57.6 55.9999 57.9692 56.3692C58.3384 56.7384 58.7077 56.9846 59.2 56.9846C59.6923 56.9846 60.0615 56.7384 60.3077 56.3692C60.5538 55.9999 60.8 55.5076 60.8 54.8922C60.8 54.2769 60.6769 53.9076 60.4307 53.5384C60.1846 53.1692 59.8154 53.0461 59.323 53.0461C58.8307 53.0461 58.4615 53.1692 58.0923 53.5384C57.6 53.9076 57.4769 54.2769 57.4769 54.8922Z" fill="#2B70B8"/>
<path d="M67.5691 55.7536L68.5537 56.1229C68.4306 56.6152 68.0614 57.1075 67.6922 57.3536C67.1999 57.7229 66.7076 57.846 66.0922 57.846C65.3537 57.846 64.6153 57.5998 64.1229 56.9844C63.6306 56.4921 63.2614 55.7537 63.2614 54.769C63.2614 53.9075 63.5076 53.169 63.9999 52.6767C64.4922 52.0613 65.1076 51.8152 65.846 51.8152C66.7076 51.8152 67.323 52.0613 67.8153 52.5537C68.3076 53.046 68.5537 53.7844 68.5537 54.646C68.5537 54.769 68.5537 54.8921 68.5537 55.0152H64.3691C64.3691 55.5075 64.4922 55.8767 64.8614 56.246C65.2306 56.6152 65.5999 56.7383 66.0922 56.7383C66.8306 56.8613 67.323 56.4921 67.5691 55.7536ZM64.3691 54.3998H67.446C67.446 54.0306 67.323 53.6613 67.0768 53.4152C66.8306 53.169 66.4614 53.046 65.9691 53.046C65.4768 53.046 65.2306 53.169 64.8614 53.4152C64.4922 53.6613 64.3691 53.9075 64.3691 54.3998Z" fill="#2B70B8"/>
<path d="M73.2307 54.5231V57.7231H72.123V52.1846H73.2307V52.9231C73.5999 52.3077 74.2153 51.9385 74.9538 51.9385C75.5691 51.9385 76.0614 52.1846 76.4307 52.5539C76.7999 52.9231 76.923 53.5385 76.923 54.1539V57.7231H75.8153V54.4C75.8153 53.4154 75.323 53.0462 74.4614 53.0462C74.0922 53.0462 73.723 53.1692 73.4768 53.5385C73.3538 53.6616 73.2307 54.0308 73.2307 54.5231Z" fill="#2B70B8"/>
<path d="M79.0153 52.8C79.5076 52.1846 80.2461 51.9385 81.1076 51.9385C81.9692 51.9385 82.5845 52.1846 83.1999 52.8C83.6922 53.4154 84.0615 54.0308 84.0615 54.8923C84.0615 55.7539 83.8153 56.4923 83.323 56.9846C82.8307 57.6 82.0922 57.8462 81.2307 57.8462C80.3692 57.8462 79.7538 57.6 79.1384 56.9846C78.6461 56.3692 78.3999 55.7539 78.3999 54.8923C78.1538 54.0308 78.3999 53.4154 79.0153 52.8ZM79.7538 56.3692C80.123 56.7385 80.4922 56.8616 80.9845 56.8616C81.4769 56.8616 81.8461 56.7385 82.2153 56.3692C82.5845 56 82.7076 55.5077 82.7076 54.8923C82.7076 54.2769 82.5845 53.7846 82.2153 53.4154C81.8461 53.0462 81.4769 52.9231 80.9845 52.9231C80.4922 52.9231 80.123 53.0462 79.7538 53.4154C79.3845 53.7846 79.2615 54.2769 79.2615 54.8923C79.2615 55.5077 79.3845 56 79.7538 56.3692Z" fill="#2B70B8"/>
<path d="M86.646 50.3384V52.0615H87.8768V53.0461H86.646V55.8768C86.646 56.123 86.646 56.3691 86.7691 56.4922C86.8922 56.6153 87.1384 56.6153 87.3845 56.6153C87.5076 56.6153 87.6307 56.6153 87.7537 56.6153V57.5999C87.5076 57.723 87.2614 57.723 87.0153 57.723C86.523 57.723 86.1537 57.5999 85.9076 57.3538C85.6614 57.1076 85.5384 56.7384 85.5384 56.2461V53.1691H84.4307V52.1845H84.6768C84.923 52.1845 85.1691 52.0615 85.2922 51.9384C85.4153 51.8153 85.5384 51.5691 85.5384 51.323V50.4615H86.646V50.3384Z" fill="#2B70B8"/>
<path d="M92.3077 52.0615V53.1692C92.1846 53.1692 91.9385 53.1692 91.8154 53.1692C90.8308 53.1692 90.3385 53.7846 90.3385 54.8923V57.7231H89.2308V52.1846H90.3385V53.1692C90.7077 52.4308 91.2 52.0615 92.0615 52.0615C92.0615 52.0615 92.1846 52.0615 92.3077 52.0615Z" fill="#2B70B8"/>
<path d="M97.2308 55.7536L98.2154 56.1229C98.0923 56.6152 97.7231 57.1075 97.3539 57.3536C96.8616 57.7229 96.3693 57.846 95.7539 57.846C95.0154 57.846 94.2769 57.5998 93.7846 56.9844C93.2923 56.4921 92.9231 55.7537 92.9231 54.769C92.9231 53.9075 93.1692 53.169 93.6616 52.6767C94.1539 52.0613 94.7692 51.8152 95.5077 51.8152C96.3692 51.8152 96.9846 52.0613 97.4769 52.5537C97.9692 53.046 98.2154 53.7844 98.2154 54.646C98.2154 54.769 98.2154 54.8921 98.2154 55.0152H94.0308C94.0308 55.5075 94.1539 55.8767 94.5231 56.246C94.8923 56.6152 95.2616 56.7383 95.7539 56.7383C96.4923 56.8613 96.9846 56.4921 97.2308 55.7536ZM94.0308 54.3998H97.1077C97.1077 54.0306 96.9846 53.6613 96.7385 53.4152C96.4923 53.169 96.1231 53.046 95.6308 53.046C95.1385 53.046 94.8923 53.169 94.5231 53.4152C94.1539 53.6613 94.1539 53.9075 94.0308 54.3998Z" fill="#2B70B8"/>
<path d="M102.892 59.9385H101.785V52.1846H102.892V53.0461C103.015 52.8 103.262 52.5538 103.631 52.3077C104 52.1846 104.369 52.0615 104.739 52.0615C105.6 52.0615 106.215 52.3077 106.585 52.9231C107.077 53.4154 107.2 54.1538 107.2 55.0154C107.2 55.8769 106.954 56.6154 106.462 57.1077C105.969 57.7231 105.354 57.9692 104.615 57.9692C104.246 57.9692 103.877 57.8461 103.508 57.7231C103.139 57.6 102.892 57.3538 102.769 57.1077V59.9385H102.892ZM106.215 54.8923C106.215 54.2769 106.092 53.9077 105.723 53.5384C105.477 53.1692 104.985 53.0461 104.492 53.0461C104 53.0461 103.631 53.1692 103.262 53.5384C103.015 53.9077 102.769 54.4 102.769 54.8923C102.769 55.5077 102.892 56 103.262 56.2461C103.508 56.6154 104 56.7384 104.492 56.7384C104.985 56.7384 105.354 56.6154 105.723 56.2461C106.092 55.8769 106.215 55.5077 106.215 54.8923Z" fill="#2B70B8"/>
<path d="M111.754 52.0615V53.1692C111.631 53.1692 111.385 53.1692 111.261 53.1692C110.277 53.1692 109.785 53.7846 109.785 54.8923V57.7231H108.677V52.1846H109.785V53.1692C110.154 52.4308 110.646 52.0615 111.508 52.0615C111.508 52.0615 111.631 52.0615 111.754 52.0615Z" fill="#2B70B8"/>
<path d="M113.231 52.8C113.723 52.1846 114.462 51.9385 115.323 51.9385C116.185 51.9385 116.8 52.1846 117.415 52.8C117.908 53.4154 118.277 54.0308 118.277 54.8923C118.277 55.7539 118.031 56.4923 117.539 56.9846C117.046 57.6 116.308 57.8462 115.446 57.8462C114.585 57.8462 113.969 57.6 113.354 56.9846C112.862 56.3692 112.615 55.7539 112.615 54.8923C112.369 54.0308 112.739 53.4154 113.231 52.8ZM114.092 56.3692C114.462 56.7385 114.831 56.8616 115.323 56.8616C115.815 56.8616 116.185 56.7385 116.554 56.3692C116.923 56 117.046 55.5077 117.046 54.8923C117.046 54.2769 116.923 53.7846 116.554 53.4154C116.185 53.0462 115.815 52.9231 115.323 52.9231C114.831 52.9231 114.462 53.0462 114.092 53.4154C113.723 53.7846 113.6 54.2769 113.6 54.8923C113.477 55.5077 113.723 56 114.092 56.3692Z" fill="#2B70B8"/>
<path d="M120.861 50.3384V52.0615H122.092V53.0461H120.861V55.8768C120.861 56.123 120.861 56.3691 120.984 56.4922C121.108 56.6153 121.354 56.6153 121.6 56.6153C121.723 56.6153 121.846 56.6153 121.969 56.6153V57.5999C121.846 57.723 121.477 57.723 121.231 57.723C120.738 57.723 120.369 57.5999 120.123 57.3538C119.877 57.1076 119.754 56.7384 119.754 56.2461V53.1691H118.646V52.1845H118.892C119.138 52.1845 119.384 52.0615 119.508 51.9384C119.631 51.8153 119.754 51.5691 119.754 51.323V50.4615H120.861V50.3384Z" fill="#2B70B8"/>
<path d="M127.385 55.7536L128.369 56.1229C128.246 56.6152 127.877 57.1075 127.508 57.3536C127.015 57.7229 126.523 57.846 125.908 57.846C125.169 57.846 124.431 57.5998 123.938 56.9844C123.446 56.4921 123.077 55.7537 123.077 54.769C123.077 53.9075 123.323 53.169 123.815 52.6767C124.308 52.0613 124.923 51.8152 125.662 51.8152C126.523 51.8152 127.138 52.0613 127.631 52.5537C128.123 53.046 128.369 53.7844 128.369 54.646C128.369 54.769 128.369 54.8921 128.369 55.0152H124.185C124.185 55.5075 124.308 55.8767 124.677 56.246C125.046 56.6152 125.415 56.7383 125.908 56.7383C126.646 56.8613 127.138 56.4921 127.385 55.7536ZM124.185 54.3998H127.262C127.262 54.0306 127.138 53.6613 126.892 53.4152C126.646 53.169 126.277 53.046 125.785 53.046C125.292 53.046 125.046 53.169 124.677 53.4152C124.431 53.6613 124.185 53.9075 124.185 54.3998Z" fill="#2B70B8"/>
<path d="M132.062 52.9231C131.569 52.9231 131.2 53.0462 130.831 53.4154C130.462 53.7846 130.339 54.2769 130.339 54.8923C130.339 55.5077 130.462 56 130.831 56.3692C131.2 56.7385 131.569 56.8616 132.062 56.8616C132.554 56.8616 132.923 56.7385 133.169 56.4923C133.415 56.2462 133.539 56 133.662 55.7539L134.646 56.1231C134.523 56.6154 134.154 56.9846 133.785 57.3539C133.415 57.7231 132.8 57.8462 132.185 57.8462C131.323 57.8462 130.708 57.6 130.215 56.9846C129.723 56.3692 129.477 55.7539 129.477 54.8923C129.477 54.0308 129.723 53.2923 130.215 52.8C130.708 52.3077 131.446 51.9385 132.185 51.9385C132.923 51.9385 133.415 52.0616 133.785 52.4308C134.154 52.8 134.523 53.1692 134.646 53.6616L133.662 54.0308C133.539 53.6616 133.415 53.4154 133.169 53.1692C132.8 53.0462 132.554 52.9231 132.062 52.9231Z" fill="#2B70B8"/>
<path d="M137.354 50.3384V52.0615H138.585V53.0461H137.354V55.8768C137.354 56.123 137.354 56.3691 137.477 56.4922C137.6 56.6153 137.846 56.6153 138.092 56.6153C138.215 56.6153 138.338 56.6153 138.461 56.6153V57.5999C138.338 57.723 137.969 57.723 137.723 57.723C137.231 57.723 136.861 57.5999 136.615 57.3538C136.369 57.1076 136.246 56.7384 136.246 56.2461V53.1691H135.138V52.1845H135.385C135.631 52.1845 135.877 52.0615 136 51.9384C136.123 51.8153 136.246 51.5691 136.246 51.323V50.4615H137.354V50.3384Z" fill="#2B70B8"/>
<path d="M139.938 50.5846C139.815 50.4615 139.692 50.2153 139.692 50.0923C139.692 49.9692 139.815 49.723 139.938 49.4769C140.062 49.2307 140.308 49.2307 140.431 49.2307C140.677 49.2307 140.8 49.3538 141.046 49.4769C141.169 49.5999 141.292 49.8461 141.292 50.0923C141.292 50.3384 141.169 50.4615 141.046 50.5846C140.923 50.7076 140.677 50.8307 140.431 50.8307C140.308 50.8307 140.062 50.7076 139.938 50.5846ZM141.046 57.723H139.938V52.1846H141.046V57.723Z" fill="#2B70B8"/>
<path d="M143.262 52.8C143.754 52.1846 144.492 51.9385 145.354 51.9385C146.215 51.9385 146.831 52.1846 147.446 52.8C147.938 53.4154 148.308 54.0308 148.308 54.8923C148.308 55.7539 148.062 56.4923 147.569 56.9846C147.077 57.6 146.338 57.8462 145.477 57.8462C144.615 57.8462 144 57.6 143.385 56.9846C142.892 56.3692 142.646 55.7539 142.646 54.8923C142.4 54.0308 142.646 53.4154 143.262 52.8ZM144 56.3692C144.369 56.7385 144.738 56.8616 145.231 56.8616C145.723 56.8616 146.092 56.7385 146.462 56.3692C146.831 56 146.954 55.5077 146.954 54.8923C146.954 54.2769 146.831 53.7846 146.462 53.4154C146.092 53.0462 145.723 52.9231 145.231 52.9231C144.738 52.9231 144.369 53.0462 144 53.4154C143.631 53.7846 143.508 54.2769 143.508 54.8923C143.508 55.5077 143.754 56 144 56.3692Z" fill="#2B70B8"/>
<path d="M150.523 54.5231V57.7231H149.415V52.1846H150.523V52.9231C150.892 52.3077 151.508 51.9385 152.246 51.9385C152.861 51.9385 153.354 52.1846 153.723 52.5539C154.092 52.9231 154.215 53.5385 154.215 54.1539V57.7231H153.108V54.4C153.108 53.4154 152.615 53.0462 151.754 53.0462C151.384 53.0462 151.015 53.1692 150.769 53.5385C150.646 53.6616 150.523 54.0308 150.523 54.5231Z" fill="#2B70B8"/>
<path d="M157.661 56.246L158.646 55.8767C158.646 56.1229 158.769 56.369 159.015 56.6152C159.261 56.8613 159.508 56.8613 159.877 56.8613C160.123 56.8613 160.369 56.7383 160.615 56.6152C160.738 56.4921 160.861 56.246 160.861 56.1229C160.861 55.7536 160.615 55.5075 160.123 55.3844L159.138 55.1383C158.646 55.0152 158.4 54.8921 158.154 54.5229C157.908 54.2767 157.785 53.9075 157.785 53.5383C157.785 53.046 158.031 52.6767 158.4 52.3075C158.769 51.9383 159.261 51.8152 159.754 51.8152C160.123 51.8152 160.369 51.8152 160.738 51.9383C160.985 52.0613 161.231 52.1844 161.354 52.3075C161.477 52.4306 161.6 52.6767 161.723 52.7998C161.846 52.9229 161.846 53.046 161.846 53.2921L160.861 53.6613C160.861 53.5383 160.861 53.5383 160.738 53.4152C160.615 53.2921 160.615 53.169 160.615 53.169C160.492 53.046 160.369 52.9229 160.246 52.9229C160.123 52.7998 159.877 52.7998 159.754 52.7998C159.508 52.7998 159.261 52.9229 159.138 53.046C159.015 53.169 158.892 53.4152 158.892 53.5383C158.892 53.9075 159.138 54.1536 159.508 54.1536L160.369 54.3998C160.861 54.5229 161.231 54.646 161.477 55.0152C161.723 55.2613 161.846 55.6306 161.846 56.1229C161.846 56.6152 161.723 56.9844 161.354 57.3536C160.985 57.7229 160.492 57.846 159.877 57.846C159.138 57.846 158.646 57.7229 158.277 57.3536C158.031 56.9844 157.785 56.6152 157.661 56.246Z" fill="#2B70B8"/>
<path d="M163.692 52.8C164.185 52.1846 164.923 51.9385 165.785 51.9385C166.646 51.9385 167.262 52.1846 167.877 52.8C168.369 53.4154 168.739 54.0308 168.739 54.8923C168.739 55.7539 168.492 56.4923 168 56.9846C167.508 57.6 166.769 57.8462 165.908 57.8462C165.046 57.8462 164.431 57.6 163.815 56.9846C163.323 56.3692 163.077 55.7539 163.077 54.8923C162.954 54.0308 163.2 53.4154 163.692 52.8ZM164.554 56.3692C164.923 56.7385 165.292 56.8616 165.785 56.8616C166.277 56.8616 166.646 56.7385 167.015 56.3692C167.385 56 167.508 55.5077 167.508 54.8923C167.508 54.2769 167.385 53.7846 167.015 53.4154C166.646 53.0462 166.277 52.9231 165.785 52.9231C165.292 52.9231 164.923 53.0462 164.554 53.4154C164.185 53.7846 164.062 54.2769 164.062 54.8923C164.062 55.5077 164.185 56 164.554 56.3692Z" fill="#2B70B8"/>
<path d="M172.308 52.9231C171.815 52.9231 171.446 53.0462 171.077 53.4154C170.708 53.7846 170.585 54.2769 170.585 54.8923C170.585 55.5077 170.708 56 171.077 56.3692C171.446 56.7385 171.815 56.8616 172.308 56.8616C172.8 56.8616 173.169 56.7385 173.415 56.4923C173.662 56.2462 173.785 56 173.908 55.7539L174.892 56.1231C174.769 56.6154 174.4 56.9846 174.031 57.3539C173.662 57.7231 173.046 57.8462 172.308 57.8462C171.446 57.8462 170.831 57.6 170.338 56.9846C169.846 56.3692 169.6 55.7539 169.6 54.8923C169.6 54.0308 169.846 53.2923 170.338 52.8C170.831 52.3077 171.569 51.9385 172.308 51.9385C173.046 51.9385 173.538 52.0616 173.908 52.4308C174.277 52.8 174.646 53.1692 174.769 53.6616L173.785 54.0308C173.662 53.6616 173.538 53.4154 173.292 53.1692C173.046 53.0462 172.8 52.9231 172.308 52.9231Z" fill="#2B70B8"/>
<path d="M176.123 50.5846C176 50.4615 175.877 50.2153 175.877 50.0923C175.877 49.9692 176 49.723 176.123 49.4769C176.246 49.2307 176.492 49.2307 176.615 49.2307C176.861 49.2307 176.984 49.3538 177.231 49.4769C177.354 49.5999 177.477 49.8461 177.477 50.0923C177.477 50.3384 177.354 50.4615 177.231 50.5846C177.108 50.7076 176.861 50.8307 176.615 50.8307C176.492 50.8307 176.246 50.7076 176.123 50.5846ZM177.231 57.723H176.123V52.1846H177.231V57.723Z" fill="#2B70B8"/>
<path d="M178.708 56.2461C178.708 55.7538 178.831 55.3846 179.2 55.1384C179.569 54.8923 179.939 54.6461 180.431 54.6461L181.908 54.4C182.154 54.4 182.277 54.2769 182.277 54.0308C182.277 53.7846 182.154 53.5384 182.031 53.2923C181.785 53.0461 181.539 53.0461 181.169 53.0461C180.8 53.0461 180.554 53.1692 180.308 53.2923C180.062 53.5384 179.939 53.7846 179.939 54.1538L178.954 53.9077C178.954 53.4154 179.2 52.9231 179.692 52.5538C180.185 52.1846 180.677 52.0615 181.292 52.0615C182.031 52.0615 182.646 52.3077 183.015 52.6769C183.385 53.0461 183.631 53.5384 183.631 54.1538V56.9846C183.631 57.3538 183.631 57.6 183.754 57.8461H182.646C182.646 57.6 182.646 57.3538 182.646 57.1077C182.523 57.3538 182.277 57.6 182.031 57.7231C181.785 57.9692 181.415 57.9692 180.923 57.9692C180.431 57.9692 179.939 57.8461 179.569 57.4769C178.831 57.1077 178.708 56.6154 178.708 56.2461ZM180.677 56.9846C181.169 56.9846 181.539 56.8615 181.785 56.6154C182.031 56.3692 182.277 55.8769 182.277 55.3846V55.1384L180.554 55.3846C180.308 55.3846 180.062 55.5077 179.939 55.6308C179.815 55.7538 179.692 56 179.692 56.2461C179.692 56.4923 179.815 56.6154 179.939 56.8615C180.185 56.8615 180.431 56.9846 180.677 56.9846Z" fill="#2B70B8"/>
<path d="M186.215 57.723H185.108V49.3538H186.215V57.723Z" fill="#2B70B8"/>
<path d="M191.877 55.7536L192.861 56.1229C192.738 56.6152 192.369 57.1075 192 57.3536C191.508 57.7229 191.015 57.846 190.4 57.846C189.661 57.846 188.923 57.5998 188.431 56.9844C187.938 56.4921 187.569 55.7537 187.569 54.769C187.569 53.9075 187.815 53.169 188.308 52.6767C188.8 52.0613 189.415 51.8152 190.154 51.8152C191.015 51.8152 191.631 52.0613 192.123 52.5537C192.615 53.046 192.861 53.7844 192.861 54.646C192.861 54.769 192.861 54.8921 192.861 55.0152H188.677C188.677 55.5075 188.8 55.8767 189.169 56.246C189.538 56.6152 189.908 56.7383 190.4 56.7383C191.138 56.8613 191.631 56.4921 191.877 55.7536ZM188.677 54.3998H191.754C191.754 54.0306 191.631 53.6613 191.384 53.4152C191.138 53.169 190.769 53.046 190.277 53.046C189.784 53.046 189.538 53.169 189.169 53.4152C188.923 53.6613 188.677 53.9075 188.677 54.3998Z" fill="#2B70B8"/>
</svg>
