<svg width="32" height="32" viewBox="0 0 32 32" fill="none" xmlns="http://www.w3.org/2000/svg">
<path d="M19 8.66667H21.625C21.85 8.66667 22 8.52 22 8.3V5.36667C22 5.14667 21.85 5 21.625 5H18.625C15.85 5 13.75 7.05333 13.75 9.76667V13.0667H10.375C10.15 13.0667 10 13.2133 10 13.4333V16.3667C10 16.5867 10.15 16.7333 10.375 16.7333H13.75V26.6333C13.75 26.8533 13.9 27 14.125 27H17.125C17.35 27 17.5 26.8533 17.5 26.6333V16.7333H20.875C21.025 16.7333 21.175 16.5867 21.25 16.44L22 13.5067C22 13.4333 22 13.2867 21.925 13.2133C21.85 13.14 21.775 13.0667 21.625 13.0667H17.5V10.1333C17.5 9.32667 18.175 8.66667 19 8.66667Z" fill="#1A428A"/>
</svg>