<svg width="38" height="38" viewBox="0 0 38 38" fill="none" xmlns="http://www.w3.org/2000/svg">
<path d="M26.25 11.1667H28.6562C28.8625 11.1667 29 11.04 29 10.85V8.31667C29 8.12667 28.8625 8 28.6562 8H25.9062C23.3625 8 21.4375 9.77333 21.4375 12.1167V14.9667H18.3438C18.1375 14.9667 18 15.0933 18 15.2833V17.8167C18 18.0067 18.1375 18.1333 18.3438 18.1333H21.4375V26.6833C21.4375 26.8733 21.575 27 21.7812 27H24.5312C24.7375 27 24.875 26.8733 24.875 26.6833V18.1333H27.9688C28.1062 18.1333 28.2437 18.0067 28.3125 17.88L29 15.3467C29 15.2833 29 15.1567 28.9312 15.0933C28.8625 15.03 28.7937 14.9667 28.6562 14.9667H24.875V12.4333C24.875 11.7367 25.4938 11.1667 26.25 11.1667Z" fill="#1D458C"/>
</svg>
