<svg width="19" height="19" viewBox="0 0 19 19" fill="none" xmlns="http://www.w3.org/2000/svg">
<g clip-path="url(#clip0_1_2169)">
<path d="M4.43332 6.3334H0.633317C0.443317 6.3334 0.31665 6.46007 0.31665 6.65007V18.6834C0.31665 18.8734 0.443317 19.0001 0.633317 19.0001H4.43332C4.62332 19.0001 4.74998 18.8734 4.74998 18.6834V6.65007C4.74998 6.46007 4.62332 6.3334 4.43332 6.3334Z" fill="#1D458C"/>
<path d="M14.8199 5.69992C13.4266 5.69992 11.9699 6.26992 11.0832 6.90325V6.64992C11.0832 6.45992 10.9566 6.33325 10.7666 6.33325H6.96657C6.77657 6.33325 6.6499 6.45992 6.6499 6.64992V18.6833C6.6499 18.8733 6.77657 18.9999 6.96657 18.9999H10.7666C10.9566 18.9999 11.0832 18.8733 11.0832 18.6833V10.2599C11.9699 9.43659 13.1732 9.24659 13.8066 9.94325C14.1232 10.2599 14.2499 10.7666 14.2499 11.3999V18.6833C14.2499 18.8733 14.3766 18.9999 14.5666 18.9999H18.3666C18.5566 18.9999 18.6832 18.8733 18.6832 18.6833V10.4499C18.6199 6.33325 16.2132 5.69992 14.8199 5.69992Z" fill="#1D458C"/>
<path d="M2.53332 0C1.32998 0 0.31665 1.01333 0.31665 2.21667C0.31665 3.42 1.32998 4.43333 2.53332 4.43333C3.73665 4.43333 4.74998 3.42 4.74998 2.21667C4.74998 1.01333 3.73665 0 2.53332 0Z" fill="#1D458C"/>
</g>
<defs>
<clipPath id="clip0_1_2169">
<rect width="19" height="19" fill="white"/>
</clipPath>
</defs>
</svg>
