<svg width="32" height="32" viewBox="0 0 32 32" fill="none" xmlns="http://www.w3.org/2000/svg">
<path d="M10.7997 11.6667H6.66172C6.45483 11.6667 6.31689 11.8001 6.31689 12.0001V24.6667C6.31689 24.8667 6.45483 25 6.66172 25H10.7997C11.0066 25 11.1445 24.8667 11.1445 24.6667V12.0001C11.1445 11.8001 11.0066 11.6667 10.7997 11.6667Z" fill="#1A428A"/>
<path d="M22.11 11C20.5927 11 19.0065 11.6 18.041 12.2667V12C18.041 11.8 17.9031 11.6667 17.6962 11.6667H13.5582C13.3513 11.6667 13.2134 11.8 13.2134 12V24.6666C13.2134 24.8666 13.3513 24.9999 13.5582 24.9999H17.6962C17.9031 24.9999 18.041 24.8666 18.041 24.6666V15.8C19.0065 14.9333 20.3169 14.7333 21.0065 15.4666C21.3514 15.8 21.4893 16.3333 21.4893 17V24.6666C21.4893 24.8666 21.6272 24.9999 21.8341 24.9999H25.9721C26.179 24.9999 26.3169 24.8666 26.3169 24.6666V16C26.248 11.6667 23.6273 11 22.11 11Z" fill="#1A428A"/>
<path d="M8.73071 5C7.42035 5 6.31689 6.06666 6.31689 7.33332C6.31689 8.59999 7.42035 9.66665 8.73071 9.66665C10.0411 9.66665 11.1445 8.59999 11.1445 7.33332C11.1445 6.06666 10.0411 5 8.73071 5Z" fill="#1A428A"/>
</svg>