<svg width="24" height="24" viewBox="0 0 24 24" fill="none" xmlns="http://www.w3.org/2000/svg">
<path d="M23.3689 4.855C23.2169 4.688 22.9719 4.646 22.7709 4.749C22.6459 4.813 22.4109 4.897 22.1319 4.98C22.4839 4.512 22.7669 3.988 22.8919 3.517C22.9459 3.314 22.8669 3.1 22.6949 2.979C22.5229 2.859 22.2939 2.859 22.1219 2.979C21.8509 3.168 20.5429 3.736 19.7159 3.92C17.8469 2.283 15.6719 2.113 13.4109 3.433C11.5729 4.506 11.1729 6.688 11.2509 8.018C7.04394 7.613 4.42894 5.391 2.95694 3.552C2.85394 3.423 2.68794 3.355 2.53194 3.365C2.36794 3.377 2.21994 3.468 2.13594 3.609C1.43994 4.784 1.24694 6.083 1.57994 7.366C1.76194 8.066 2.07994 8.683 2.44894 9.183C2.27194 9.096 2.10094 8.987 1.93994 8.857C1.79194 8.735 1.58494 8.712 1.40994 8.793C1.23594 8.876 1.12494 9.052 1.12494 9.245C1.12494 11.448 2.50294 12.918 3.78994 13.686C3.58194 13.661 3.36494 13.615 3.14594 13.548C2.95794 13.491 2.75394 13.548 2.62394 13.696C2.49394 13.843 2.46294 14.053 2.54394 14.232C3.26694 15.831 4.63694 16.931 6.33194 17.33C4.85194 18.199 2.87094 18.625 1.05694 18.416C0.821942 18.383 0.597942 18.532 0.523942 18.758C0.449942 18.984 0.546942 19.232 0.753942 19.348C3.50594 20.893 5.99394 21.445 8.14394 21.445C11.2729 21.445 13.6879 20.277 15.1579 19.3C19.1209 16.67 21.5909 11.948 21.2469 7.723C21.8819 7.254 22.8319 6.388 23.4209 5.457C23.5429 5.269 23.5209 5.021 23.3689 4.855Z" fill="#1D458C"/>
</svg>
