<svg width="32" height="32" viewBox="0 0 32 32" fill="none" xmlns="http://www.w3.org/2000/svg">
<path d="M27.3692 8.85501C27.2172 8.68801 26.9722 8.64601 26.7712 8.74901C26.6462 8.81301 26.4112 8.89701 26.1322 8.98001C26.4842 8.51201 26.7672 7.98801 26.8922 7.51701C26.9462 7.31401 26.8672 7.10001 26.6952 6.97901C26.5232 6.85901 26.2942 6.85901 26.1222 6.97901C25.8512 7.16801 24.5432 7.73601 23.7162 7.92001C21.8472 6.28301 19.6722 6.11301 17.4112 7.43301C15.5732 8.50601 15.1732 10.688 15.2512 12.018C11.0442 11.613 8.42919 9.39101 6.95719 7.55201C6.85419 7.42301 6.68819 7.35501 6.53219 7.36501C6.36819 7.37701 6.22019 7.46801 6.13619 7.60901C5.44019 8.78401 5.24719 10.083 5.58019 11.366C5.76219 12.066 6.08019 12.683 6.44919 13.183C6.27219 13.096 6.10119 12.987 5.94019 12.857C5.79219 12.735 5.58519 12.712 5.41019 12.793C5.23619 12.876 5.12519 13.052 5.12519 13.245C5.12519 15.448 6.50319 16.918 7.79019 17.686C7.58219 17.661 7.36519 17.615 7.14619 17.548C6.95819 17.491 6.75419 17.548 6.62419 17.696C6.49419 17.843 6.46319 18.053 6.54419 18.232C7.26719 19.831 8.63719 20.931 10.3322 21.33C8.85219 22.199 6.87119 22.625 5.05719 22.416C4.82219 22.383 4.59819 22.532 4.52419 22.758C4.45019 22.984 4.54719 23.232 4.75419 23.348C7.50619 24.893 9.99419 25.445 12.1442 25.445C15.2732 25.445 17.6882 24.277 19.1582 23.3C23.1212 20.67 25.5912 15.948 25.2472 11.723C25.8822 11.254 26.8322 10.388 27.4212 9.45701C27.5432 9.26901 27.5212 9.02101 27.3692 8.85501Z" fill="#1A428A"/>
</svg>