<svg width="24" height="24" viewBox="0 0 24 24" fill="none" xmlns="http://www.w3.org/2000/svg">
<path fill-rule="evenodd" clip-rule="evenodd" d="M15.1195 5.66717C15.5243 5.29137 16.157 5.31481 16.5328 5.71952L21.7328 11.3195C22.0891 11.7032 22.0891 12.2967 21.7328 12.6804L16.5328 18.2804C16.157 18.6851 15.5243 18.7086 15.1195 18.3328C14.7148 17.957 14.6914 17.3242 15.0672 16.9195L19.6354 12L15.0672 7.08042C14.6914 6.67571 14.7148 6.04298 15.1195 5.66717Z" fill="#212529"/>
<path fill-rule="evenodd" clip-rule="evenodd" d="M2 12C2 11.4477 2.44772 11 3 11L21 11C21.5523 11 22 11.4477 22 12C22 12.5523 21.5523 13 21 13L3 13C2.44772 13 2 12.5523 2 12Z" fill="#212529"/>
</svg>
