<svg width="24" height="24" viewBox="0 0 24 24" fill="none" xmlns="http://www.w3.org/2000/svg">
<path fill-rule="evenodd" clip-rule="evenodd" d="M12 20C16.4183 20 20 16.4183 20 12C20 7.58172 16.4183 4 12 4C7.58172 4 4 7.58172 4 12C4 16.4183 7.58172 20 12 20ZM12 22C17.5228 22 22 17.5228 22 12C22 6.47715 17.5228 2 12 2C6.47715 2 2 6.47715 2 12C2 17.5228 6.47715 22 12 22Z" fill="#212529"/>
<path fill-rule="evenodd" clip-rule="evenodd" d="M17.261 8.14683C17.6494 8.53952 17.6459 9.17268 17.2532 9.56103L11.1355 15.611C10.7444 15.9978 10.1144 15.9961 9.72538 15.6072L6.643 12.5258C6.25242 12.1354 6.25232 11.5022 6.64278 11.1116C7.03324 10.721 7.66641 10.7209 8.05699 11.1114L10.4362 13.4898L15.8468 8.13897C16.2395 7.75063 16.8727 7.75415 17.261 8.14683Z" fill="#212529"/>
</svg>
