<svg width="24" height="24" viewBox="0 0 24 24" fill="none" xmlns="http://www.w3.org/2000/svg">
<path fill-rule="evenodd" clip-rule="evenodd" d="M12 20C16.4183 20 20 16.4183 20 12C20 7.58172 16.4183 4 12 4C7.58172 4 4 7.58172 4 12C4 16.4183 7.58172 20 12 20ZM22 12C22 17.5229 17.5228 22 12 22C6.47715 22 2 17.5228 2 12C2 6.47715 6.47715 2 12 2C17.5229 2 22 6.47715 22 12Z" fill="#212529"/>
<path d="M11 8.00003C11 7.44774 11.4477 7.00003 12 7.00003C12.5523 7.00003 13 7.44774 13 8.00003C13 8.55231 12.5523 9.00003 12 9.00003C11.4477 9.00003 11 8.55231 11 8.00003Z" fill="#212529"/>
<path d="M13 16.6C13 17.1523 12.5523 17.6 12 17.6C11.4477 17.6 11 17.1523 11 16.6L11 11.4C11 10.8477 11.4477 10.4 12 10.4C12.5523 10.4 13 10.8477 13 11.4L13 16.6Z" fill="#212529"/>
</svg>
