<svg width="24" height="24" viewBox="0 0 24 24" fill="none" xmlns="http://www.w3.org/2000/svg">
<path fill-rule="evenodd" clip-rule="evenodd" d="M13.1811 3.928C13.0994 3.85911 12.978 3.8666 12.9054 3.94501L10.4362 6.61182C9.87143 7.22174 9.01116 7.46129 8.21247 7.23103L7.66389 7.07289C7.70893 8.00983 7.03775 8.85055 6.08623 8.99303L3.97181 9.30962C3.94774 9.31323 3.93468 9.32073 3.92579 9.32769C3.91499 9.33616 3.90383 9.34944 3.89584 9.36731C3.88784 9.38518 3.88537 9.40234 3.88626 9.41604C3.88699 9.4273 3.89011 9.44205 3.90346 9.4624C3.90989 9.4722 3.91801 9.48078 3.92743 9.48775L7.54043 12.161C8.16973 12.6266 8.50421 13.3915 8.41876 14.1696L7.89868 18.9061C7.88848 18.999 7.94396 19.0866 8.03231 19.117L12.541 20.6711C12.5901 20.688 12.644 20.6851 12.691 20.6631L13.2863 20.3841C13.3402 19.9176 13.5856 19.4906 13.9687 19.2091L14.4123 18.8833C14.9828 18.4641 15.7202 18.3451 16.3936 18.5635L18.0249 19.0926C18.0836 19.1117 18.1479 19.1025 18.1989 19.0678L19.5362 18.1595C19.616 18.1052 19.6458 18.0017 19.6068 17.9134L18.0167 14.3044C17.748 13.6945 17.7703 12.9956 18.0773 12.404L20.2785 8.16271C20.3329 8.0579 20.2851 7.92903 20.1755 7.885L16.106 6.24975C15.8888 6.16248 15.6869 6.04111 15.508 5.89022L13.1811 3.928ZM11.4379 2.58619C12.2365 1.72375 13.5719 1.64134 14.4704 2.39906L16.7973 4.36129C16.8136 4.375 16.832 4.38604 16.8517 4.39397L20.9212 6.02922C22.1265 6.51352 22.652 7.93111 22.0536 9.084L19.8525 13.3253C19.8246 13.379 19.8225 13.4426 19.847 13.498L21.4371 17.107C21.8652 18.0786 21.5382 19.2173 20.66 19.8139L19.3227 20.7222C18.7608 21.1039 18.054 21.2046 17.4079 20.995L15.7765 20.466C15.7153 20.4461 15.6483 20.4569 15.5964 20.495L15.2678 20.7365C15.2127 21.3332 14.8458 21.8619 14.2962 22.1195L13.5399 22.474C13.022 22.7168 12.43 22.7483 11.8892 22.5619L7.38058 21.0079C6.40876 20.6729 5.79843 19.7096 5.91063 18.6878L6.43071 13.9513C6.43848 13.8806 6.40807 13.8111 6.35086 13.7687L2.73787 11.0955C2.53875 10.9482 2.36727 10.7668 2.23137 10.5597C1.39091 9.27902 2.1607 7.55851 3.67565 7.33167L5.64842 7.03628C5.53069 5.75591 6.744 4.72624 8.00905 5.09094L8.76649 5.3093C8.8391 5.33023 8.9173 5.30845 8.96864 5.25301L11.4379 2.58619Z" fill="#212529"/>
</svg>
