<svg width="24" height="24" viewBox="0 0 24 24" fill="none" xmlns="http://www.w3.org/2000/svg">
<path fill-rule="evenodd" clip-rule="evenodd" d="M5 6.40002C5.55228 6.40002 6 6.84774 6 7.40002V13.05C6 13.6023 6.44772 14.05 7 14.05H19C19.5523 14.05 20 14.4977 20 15.05C20 15.6023 19.5523 16.05 19 16.05H7C5.34314 16.05 4 14.7069 4 13.05V7.40002C4 6.84774 4.44772 6.40002 5 6.40002Z" fill="#212529"/>
<path fill-rule="evenodd" clip-rule="evenodd" d="M15.5415 11.0974C15.9572 10.7337 16.5889 10.7758 16.9526 11.1915L19.7526 14.3915C20.0825 14.7685 20.0825 15.3315 19.7526 15.7085L16.9526 18.9085C16.5889 19.3241 15.9572 19.3662 15.5415 19.0026C15.1259 18.6389 15.0838 18.0071 15.4474 17.5915L17.6713 15.05L15.4474 12.5085C15.0838 12.0929 15.1259 11.4611 15.5415 11.0974Z" fill="#212529"/>
</svg>
