<svg width="24" height="24" viewBox="0 0 24 24" fill="none" xmlns="http://www.w3.org/2000/svg">
<path fill-rule="evenodd" clip-rule="evenodd" d="M10.25 6C7.90279 6 6 7.90279 6 10.25C6 12.5972 7.90279 14.5 10.25 14.5C12.5972 14.5 14.5 12.5972 14.5 10.25C14.5 7.90279 12.5972 6 10.25 6ZM4 10.25C4 6.79822 6.79822 4 10.25 4C13.7018 4 16.5 6.79822 16.5 10.25C16.5 13.7018 13.7018 16.5 10.25 16.5C6.79822 16.5 4 13.7018 4 10.25Z" fill="#212529"/>
<path fill-rule="evenodd" clip-rule="evenodd" d="M18.2927 19.7071L13.2372 14.6515L14.6514 13.2373L19.707 18.2929C20.0975 18.6834 20.0975 19.3166 19.707 19.7071C19.3164 20.0976 18.6833 20.0976 18.2927 19.7071Z" fill="#212529"/>
</svg>
