<svg width="24" height="24" viewBox="0 0 24 24" fill="none" xmlns="http://www.w3.org/2000/svg">
<path fill-rule="evenodd" clip-rule="evenodd" d="M11.562 2.10104C11.8384 1.96632 12.1615 1.96632 12.438 2.10104L19.4176 5.502C19.7615 5.66953 19.9796 6.01849 19.9796 6.40096C19.9796 7.00378 19.9857 7.56186 19.9914 8.08663C20.0193 10.6622 20.0386 12.4357 19.2899 14.761C18.3903 17.5547 16.3667 20.4105 12.3552 21.9348C12.1264 22.0217 11.8736 22.0217 11.6448 21.9348C7.63331 20.4105 5.60966 17.5547 4.71012 14.761C3.96137 12.4357 3.98064 10.6622 4.00861 8.08663C4.01431 7.56185 4.02037 7.00378 4.02037 6.40096C4.02037 6.01849 4.23852 5.66953 4.58234 5.502L11.562 2.10104ZM6.01876 7.02687C6.01671 7.43975 6.01302 7.82492 6.00955 8.18727C5.98517 10.7336 5.97157 12.1533 6.61387 14.148C7.32894 16.3688 8.87665 18.62 12 19.9237C15.1233 18.62 16.671 16.3688 17.3861 14.148C18.0284 12.1533 18.0148 10.7336 17.9904 8.18728C17.987 7.82492 17.9833 7.43976 17.9812 7.02687L12 4.1124L6.01876 7.02687Z" fill="#212529"/>
<path fill-rule="evenodd" clip-rule="evenodd" d="M15.6828 8.82217C15.9743 9.11644 15.9721 9.59131 15.6778 9.88282L11.4886 14.0328C11.1951 14.3235 10.7219 14.3222 10.43 14.03L8.31929 11.9163C8.0266 11.6232 8.02693 11.1483 8.32003 10.8556C8.61312 10.5629 9.088 10.5633 9.38069 10.8564L10.9636 12.4415L14.6222 8.81718C14.9164 8.52567 15.3913 8.5279 15.6828 8.82217Z" fill="#212529"/>
</svg>
